<svg xmlns="http://www.w3.org/2000/svg" xmlns:xlink="http://www.w3.org/1999/xlink" width="800" zoomAndPan="magnify" viewBox="0 0 600 599.999999" height="800" preserveAspectRatio="xMidYMid meet" version="1.0"><defs><clipPath id="df2caa44bf"><path d="M 97.039062 164.691406 L 367.652344 164.691406 L 367.652344 435.304688 L 97.039062 435.304688 Z M 97.039062 164.691406 " clip-rule="nonzero"/></clipPath><clipPath id="80e0688f9d"><path d="M 97.039062 300 L 367.652344 435.304688 L 367.652344 164.691406 Z M 97.039062 300 " clip-rule="nonzero"/></clipPath><clipPath id="d98f17bae1"><path d="M 232.34375 164.691406 L 502.960938 164.691406 L 502.960938 435.304688 L 232.34375 435.304688 Z M 232.34375 164.691406 " clip-rule="nonzero"/></clipPath><clipPath id="eb33ec85b8"><path d="M 502.960938 435.304688 L 367.652344 435.304688 L 232.34375 300 L 367.652344 164.691406 L 502.960938 164.691406 L 367.652344 300 Z M 502.960938 435.304688 " clip-rule="nonzero"/></clipPath></defs><g clip-path="url(#df2caa44bf)"><g clip-path="url(#80e0688f9d)"><path fill="#ffffff" d="M 97.039062 435.304688 L 97.039062 164.691406 L 367.652344 164.691406 L 367.652344 435.304688 Z M 97.039062 435.304688 " fill-opacity="1" fill-rule="nonzero"/></g></g><g clip-path="url(#d98f17bae1)"><g clip-path="url(#eb33ec85b8)"><path fill="#ffffff" d="M 502.960938 435.304688 L 232.34375 435.304688 L 232.34375 164.691406 L 502.960938 164.691406 Z M 502.960938 435.304688 " fill-opacity="1" fill-rule="nonzero"/></g></g></svg>