<svg xmlns="http://www.w3.org/2000/svg" xmlns:xlink="http://www.w3.org/1999/xlink" width="800" zoomAndPan="magnify" viewBox="0 0 600 599.999999" height="800" preserveAspectRatio="xMidYMid meet" version="1.0"><defs><clipPath id="a60bf169e1"><path d="M 231 243 L 344.058594 243 L 344.058594 355 L 231 355 Z M 231 243 " clip-rule="nonzero"/></clipPath><clipPath id="9538c152db"><path d="M 233.917969 303.296875 L 335.339844 354.007812 C 337.207031 354.941406 339.425781 354.839844 341.199219 353.742188 C 342.976562 352.644531 344.058594 350.707031 344.058594 348.617188 L 344.058594 249.253906 C 344.058594 247.167969 342.976562 245.226562 341.199219 244.128906 C 339.425781 243.03125 337.207031 242.933594 335.339844 243.867188 L 233.917969 294.574219 C 232.265625 295.402344 231.222656 297.089844 231.222656 298.9375 C 231.222656 300.78125 232.265625 302.472656 233.917969 303.296875 Z M 233.917969 303.296875 " clip-rule="nonzero"/></clipPath><clipPath id="208229ea2b"><path d="M 343.707031 311.105469 L 367.707031 311.105469 L 367.707031 353.09375 L 343.707031 353.09375 Z M 343.707031 311.105469 " clip-rule="nonzero"/></clipPath><clipPath id="3002a45a1f"><path d="M 332.023438 301.398438 L 356 301.398438 L 356 343.390625 L 332.023438 343.390625 Z M 332.023438 301.398438 " clip-rule="nonzero"/></clipPath><clipPath id="816a28e2fe"><path d="M 343.707031 296.996094 L 367.707031 296.996094 L 367.707031 338.691406 L 343.707031 338.691406 Z M 343.707031 296.996094 " clip-rule="nonzero"/></clipPath><clipPath id="c3fcb20d99"><path d="M 343.707031 278.464844 L 367.707031 278.464844 L 367.707031 305.464844 L 343.707031 305.464844 Z M 343.707031 278.464844 " clip-rule="nonzero"/></clipPath><clipPath id="4b82ebe9aa"><path d="M 343.074219 241.097656 L 374 241.097656 L 374 278.445312 L 343.074219 278.445312 Z M 343.074219 241.097656 " clip-rule="nonzero"/></clipPath><clipPath id="e92b0ea9ef"><path d="M 337 320 L 362 320 L 362 355 L 337 355 Z M 337 320 " clip-rule="nonzero"/></clipPath><clipPath id="4e2c9157b7"><path d="M 337.617188 355.042969 L 346.246094 320.863281 L 368.0625 326.371094 L 359.433594 360.550781 Z M 337.617188 355.042969 " clip-rule="nonzero"/></clipPath><clipPath id="d2a16cdb84"><path d="M 346.246094 320.875 L 337.613281 355.050781 L 359.429688 360.5625 L 368.058594 326.382812 Z M 346.246094 320.875 " clip-rule="nonzero"/></clipPath><clipPath id="688f4a20c0"><path d="M 346.253906 320.835938 L 337.621094 355.035156 L 371.820312 363.671875 L 380.457031 329.472656 Z M 346.253906 320.835938 " clip-rule="nonzero"/></clipPath><clipPath id="5eb2d249a6"><path d="M 346.253906 320.835938 L 337.621094 355.035156 L 371.820312 363.671875 L 380.457031 329.472656 Z M 346.253906 320.835938 " clip-rule="nonzero"/></clipPath><clipPath id="a3159f9f87"><path d="M 340.171875 241.238281 L 367.921875 241.238281 L 367.921875 275.734375 L 340.171875 275.734375 Z M 340.171875 241.238281 " clip-rule="nonzero"/></clipPath><clipPath id="5f578b93c1"><path d="M 283 240.75 L 344.058594 240.75 L 344.058594 301.558594 L 283 301.558594 Z M 283 240.75 " clip-rule="nonzero"/></clipPath><clipPath id="640caa4d58"><path d="M 284.128906 272.832031 L 340.703125 301.121094 C 341.421875 301.480469 342.277344 301.441406 342.960938 301.019531 C 343.644531 300.597656 344.058594 299.851562 344.058594 299.046875 L 344.058594 243.261719 C 344.058594 242.457031 343.644531 241.714844 342.960938 241.289062 C 342.277344 240.867188 341.421875 240.828125 340.703125 241.1875 L 284.128906 269.476562 C 283.492188 269.792969 283.09375 270.445312 283.09375 271.15625 C 283.09375 271.863281 283.492188 272.515625 284.128906 272.832031 Z M 284.128906 272.832031 " clip-rule="nonzero"/></clipPath><clipPath id="66a0b5db26"><path d="M 283 296.324219 L 344.058594 296.324219 L 344.058594 357 L 283 357 Z M 283 296.324219 " clip-rule="nonzero"/></clipPath><clipPath id="07b4e186e5"><path d="M 284.128906 328.40625 L 340.703125 356.695312 C 341.421875 357.054688 342.277344 357.015625 342.960938 356.59375 C 343.644531 356.171875 344.058594 355.425781 344.058594 354.625 L 344.058594 298.839844 C 344.058594 298.035156 343.644531 297.289062 342.960938 296.867188 C 342.277344 296.445312 341.421875 296.40625 340.703125 296.765625 L 284.128906 325.054688 C 283.492188 325.371094 283.09375 326.019531 283.09375 326.730469 C 283.09375 327.441406 283.492188 328.089844 284.128906 328.40625 Z M 284.128906 328.40625 " clip-rule="nonzero"/></clipPath></defs><g clip-path="url(#a60bf169e1)"><g clip-path="url(#9538c152db)"><path fill="#a3d727" d="M 225.199219 358.367188 L 225.199219 239.503906 L 344.058594 239.503906 L 344.058594 358.367188 Z M 225.199219 358.367188 " fill-opacity="1" fill-rule="nonzero"/></g></g><g clip-path="url(#208229ea2b)"><path fill="#a3d727" d="M 342.625 353.074219 C 344.921875 352.179688 344.585938 349.207031 344.445312 347.304688 C 344.390625 346.574219 344.109375 345.519531 344.640625 344.898438 C 345.46875 343.925781 347.65625 344.648438 348.722656 344.578125 C 349.191406 344.546875 350.128906 344.4375 350.179688 343.808594 C 350.292969 342.246094 347.457031 341.816406 346.414062 341.527344 C 345.96875 341.402344 345.121094 341.050781 345.894531 340.628906 C 347.464844 339.769531 349.867188 340.003906 351.570312 340.011719 C 355.148438 340.035156 358.792969 340.425781 362.359375 340.050781 C 362.707031 340.015625 363.050781 339.972656 363.394531 339.917969 C 363.953125 339.835938 367.765625 339.253906 367.28125 337.980469 C 366.796875 336.714844 362.882812 336.222656 361.816406 336.09375 C 358.273438 335.675781 354.679688 336.328125 351.160156 335.691406 C 349.574219 335.40625 347.9375 334.832031 346.957031 333.484375 C 345.867188 331.988281 345.703125 329.703125 345.746094 327.921875 C 345.84375 323.996094 347.140625 319.988281 346.121094 316.097656 C 345.515625 313.804688 344.160156 311.058594 341.699219 310.355469 " fill-opacity="1" fill-rule="evenodd"/></g><g clip-path="url(#3002a45a1f)"><path fill="#a3d727" d="M 330.941406 343.371094 C 333.242188 342.476562 332.902344 339.503906 332.761719 337.601562 C 332.710938 336.871094 332.429688 335.816406 332.957031 335.195312 C 333.789062 334.222656 335.972656 334.945312 337.042969 334.875 C 337.511719 334.84375 338.449219 334.734375 338.496094 334.105469 C 338.613281 332.542969 335.773438 332.109375 334.730469 331.824219 C 334.289062 331.699219 333.4375 331.347656 334.210938 330.921875 C 335.78125 330.066406 338.183594 330.300781 339.886719 330.308594 C 343.46875 330.332031 347.113281 330.722656 350.679688 330.347656 C 351.027344 330.3125 351.371094 330.265625 351.714844 330.214844 C 352.269531 330.132812 356.085938 329.546875 355.597656 328.277344 C 355.117188 327.011719 351.203125 326.519531 350.132812 326.390625 C 346.589844 325.972656 342.996094 326.625 339.476562 325.988281 C 337.894531 325.703125 336.253906 325.128906 335.273438 323.78125 C 334.1875 322.285156 334.023438 320 334.066406 318.21875 C 334.160156 314.292969 335.460938 310.285156 334.4375 306.394531 C 333.835938 304.101562 332.476562 301.351562 330.019531 300.652344 " fill-opacity="1" fill-rule="evenodd"/></g><g clip-path="url(#816a28e2fe)"><path fill="#a3d727" d="M 342.625 296.71875 C 344.921875 297.613281 344.585938 300.585938 344.445312 302.488281 C 344.390625 303.21875 344.109375 304.273438 344.640625 304.894531 C 345.46875 305.867188 347.65625 305.144531 348.722656 305.214844 C 349.191406 305.246094 350.128906 305.355469 350.179688 305.984375 C 350.292969 307.546875 347.457031 307.976562 346.414062 308.265625 C 345.96875 308.390625 345.121094 308.742188 345.894531 309.164062 C 347.464844 310.023438 349.867188 309.789062 351.570312 309.78125 C 355.148438 309.757812 358.792969 309.367188 362.359375 309.742188 C 362.707031 309.777344 363.050781 309.820312 363.394531 309.875 C 363.953125 309.957031 367.765625 310.542969 367.28125 311.8125 C 366.796875 313.078125 362.882812 313.570312 361.816406 313.699219 C 358.273438 314.117188 354.679688 313.464844 351.160156 314.101562 C 349.574219 314.386719 347.9375 314.960938 346.957031 316.308594 C 345.867188 317.804688 345.703125 320.089844 345.746094 321.871094 C 345.84375 325.796875 347.140625 329.804688 346.121094 333.695312 C 345.515625 335.988281 344.160156 338.734375 341.699219 339.4375 " fill-opacity="1" fill-rule="evenodd"/></g><g clip-path="url(#c3fcb20d99)"><path fill="#a3d727" d="M 343.625 305.808594 C 343.796875 305.835938 344.128906 304.734375 344.160156 304.636719 C 344.492188 303.605469 344.371094 302.097656 345.183594 301.296875 C 345.914062 300.574219 349.320312 300.777344 349.296875 299.894531 C 349.273438 298.886719 344.15625 298.097656 345.589844 297.519531 C 347.914062 296.578125 356.460938 297.96875 359.566406 297.851562 C 360.148438 297.832031 364.394531 297.554688 364.121094 296.25 C 363.910156 295.246094 361.695312 294.886719 361.011719 294.746094 C 357.648438 294.050781 354.199219 294.539062 350.800781 294.566406 C 350.199219 294.574219 346.710938 294.609375 346.746094 293.480469 C 346.777344 292.628906 349.183594 292.691406 349.640625 292.671875 C 352.082031 292.582031 354.523438 292.878906 356.96875 292.703125 C 357.425781 292.667969 358.808594 292.703125 359.082031 292.105469 C 359.40625 291.390625 357.484375 290.871094 357.21875 290.792969 C 354.464844 290 351.546875 290.238281 348.761719 289.628906 C 348.414062 289.550781 345.613281 288.859375 346.21875 287.917969 C 346.691406 287.179688 349.535156 287.363281 350.175781 287.371094 C 354.453125 287.441406 358.664062 287.921875 362.941406 287.453125 C 363.34375 287.40625 367.765625 286.90625 367.308594 285.707031 C 366.769531 284.300781 361.839844 283.996094 360.703125 283.910156 C 356.660156 283.605469 351.902344 284.308594 348.074219 282.671875 C 345.898438 281.742188 347.136719 280.769531 346.25 279.722656 C 345.304688 278.605469 343.828125 279.125 342.644531 278.875 " fill-opacity="1" fill-rule="evenodd"/></g><g clip-path="url(#4b82ebe9aa)"><path fill="#a3d727" d="M 342.632812 240.945312 C 342.632812 241.085938 343.1875 241.683594 343.265625 241.820312 C 343.730469 242.632812 344.085938 243.511719 344.289062 244.425781 C 344.695312 246.285156 343.75 250.078125 344.203125 250.992188 C 344.789062 252.171875 346.371094 252.542969 346.660156 253.945312 C 346.960938 255.425781 345.867188 256.628906 345.152344 257.785156 C 344.90625 258.183594 344.414062 258.980469 345.089844 259.269531 C 348.484375 260.714844 356.1875 257.386719 359.328125 260.5625 C 360.503906 261.753906 358.855469 263.179688 358.078125 264.007812 C 357.816406 264.28125 356.886719 265.046875 357.367188 265.511719 C 358.191406 266.308594 360.566406 265.871094 361.53125 265.808594 C 364.566406 265.613281 367.578125 265.226562 370.609375 265.671875 C 371.632812 265.824219 374.792969 266.628906 373.460938 268.257812 C 371.9375 270.117188 368 270.332031 365.941406 270.480469 C 360.34375 270.878906 352.894531 269 347.699219 271.542969 C 344.234375 273.238281 351.472656 276.175781 347.929688 277.625 C 347.542969 277.78125 347.089844 277.925781 346.691406 278.039062 C 346.027344 278.230469 345.351562 278.386719 344.667969 278.464844 C 343.535156 278.59375 342.375 278.535156 341.238281 278.46875 " fill-opacity="1" fill-rule="evenodd"/></g><g clip-path="url(#e92b0ea9ef)"><g clip-path="url(#4e2c9157b7)"><g clip-path="url(#d2a16cdb84)"><g clip-path="url(#688f4a20c0)"><g clip-path="url(#5eb2d249a6)"><path fill="#a3d727" d="M 344.238281 320.378906 C 344.164062 320.417969 344.429688 321.023438 344.472656 321.136719 C 345.457031 323.78125 347.011719 325.234375 345.953125 328.164062 C 345.46875 329.507812 344.128906 330.585938 344.023438 332.050781 C 343.910156 333.636719 345.359375 334.957031 344.886719 336.5625 C 344.375 338.292969 342.058594 339.421875 342.214844 341.328125 C 342.34375 342.898438 344.742188 343.128906 344.875 344.796875 C 344.941406 345.648438 343.695312 346.84375 344.320312 347.609375 C 346.734375 350.554688 361.972656 348.953125 361.199219 352.210938 C 360.726562 354.179688 347.820312 351.921875 345.476562 351.738281 C 340.992188 351.394531 339.335938 355.910156 336.230469 354.496094 " fill-opacity="1" fill-rule="evenodd"/></g></g></g></g></g><g clip-path="url(#a3159f9f87)"><path fill="#a3d727" d="M 338.835938 275.671875 C 338.8125 275.785156 339.507812 275.199219 339.5625 275.144531 C 339.925781 274.78125 340.226562 274.355469 340.488281 273.90625 C 341.269531 272.566406 341.652344 271.144531 341.640625 269.59375 C 341.628906 268.4375 340.9375 266.5625 341.554688 265.488281 C 342.25 264.289062 344.660156 263.6875 344.804688 262.28125 C 344.976562 260.632812 341.386719 256.839844 343.929688 256.1875 C 346.152344 255.613281 348.601562 256.195312 350.84375 256.351562 C 352.984375 256.5 355.355469 256.652344 357.4375 256 C 358.085938 255.796875 359.4375 255.171875 358.839844 254.265625 C 357.433594 252.136719 350.84375 252.054688 348.480469 251.496094 C 348.15625 251.417969 344.742188 250.574219 345.46875 249.613281 C 346.230469 248.601562 348.699219 248.949219 349.695312 248.988281 C 353.890625 249.148438 358.03125 249.988281 362.242188 249.636719 C 363.011719 249.570312 368.175781 249.105469 367.898438 247.355469 C 367.710938 246.144531 365.34375 245.746094 364.519531 245.574219 C 360.785156 244.800781 356.894531 245.140625 353.121094 245.351562 C 350.003906 245.523438 346.351562 245.949219 343.457031 244.453125 C 341.316406 243.34375 340.648438 240.957031 338.101562 240.523438 " fill-opacity="1" fill-rule="evenodd"/></g><g clip-path="url(#5f578b93c1)"><g clip-path="url(#640caa4d58)"><path fill="#a3d727" d="M 280.773438 302.796875 L 280.773438 239.511719 L 344.058594 239.511719 L 344.058594 302.796875 Z M 280.773438 302.796875 " fill-opacity="1" fill-rule="nonzero"/></g></g><g clip-path="url(#66a0b5db26)"><g clip-path="url(#07b4e186e5)"><path fill="#a3d727" d="M 280.773438 358.375 L 280.773438 295.089844 L 344.058594 295.089844 L 344.058594 358.375 Z M 280.773438 358.375 " fill-opacity="1" fill-rule="nonzero"/></g></g></svg>